<svg width="113" height="72" viewBox="0 0 113 72" fill="none" xmlns="http://www.w3.org/2000/svg">
<circle cx="83.5" cy="37.5" r="29.5" fill="#6A9BBF"/>
<circle cx="36" cy="36" r="35.5" fill="#060606" stroke="#060606"/>
<path d="M49.616 46.504H46.192V28.04L38.928 46.344H36.112L28.592 28.04V46.504H25.136V22.632H29.744L37.488 41.608L45.008 22.632H49.616V46.504ZM68.488 29.064L62.152 46.76C61.6187 48.2533 61.064 49.288 60.488 49.864C59.784 50.6533 58.8453 51.0587 57.672 51.08H57.352C56.5413 51.08 55.7093 50.9733 54.856 50.76L55.208 47.56C55.9547 47.8373 56.5627 47.976 57.032 47.976C57.0747 47.976 57.16 47.9653 57.288 47.944C57.4373 47.944 57.6293 47.9333 57.864 47.912C58.3547 47.8693 58.8027 47.1547 59.208 45.768L59.464 44.936L53.672 29.064H57.192L61.064 40.744L65.096 29.064H68.488Z" fill="white"/>
<path d="M81.34 45.86H73.82V31.06H75.98V43.8H81.34V45.86ZM85.4875 45.94H83.3475V34.74H85.4875V45.94ZM85.4875 32.82H83.3475V30.32H85.4875V32.82ZM94.0428 37.2C93.1628 36.8267 92.3295 36.64 91.5428 36.64C90.4361 36.64 89.8828 37.0733 89.8828 37.94C89.8828 38.3267 90.3028 38.7267 91.1428 39.14C92.3561 39.74 93.1361 40.18 93.4828 40.46C94.3095 41.14 94.7228 41.98 94.7228 42.98C94.7228 44.1 94.2761 44.9467 93.3828 45.52C92.6761 45.96 91.8295 46.18 90.8428 46.18C89.6428 46.18 88.6028 46 87.7228 45.64L87.9228 43.58C88.8961 44.06 89.8495 44.3 90.7828 44.3C91.3161 44.3 91.7561 44.16 92.1028 43.88C92.4228 43.6267 92.5828 43.2933 92.5828 42.88C92.5828 42.3467 92.1761 41.8533 91.3628 41.4C90.6028 40.9867 90.0361 40.6733 89.6628 40.46C89.2895 40.2467 89.0961 40.1333 89.0828 40.12C88.2695 39.5067 87.8628 38.7533 87.8628 37.86C87.8628 36.7667 88.2695 35.9533 89.0828 35.42C89.7361 34.9933 90.5295 34.78 91.4628 34.78C92.5028 34.78 93.4361 34.96 94.2628 35.32L94.0428 37.2ZM102.299 45.86C101.793 46.0733 101.219 46.18 100.579 46.18C99.3127 46.18 98.4927 45.84 98.1194 45.16C97.8394 44.7067 97.6994 43.8333 97.6994 42.54V36.88H95.9794V34.9H97.6994V32.52L99.8594 31.82V34.9H101.979V36.88H99.8594V43.1C99.8594 43.8733 100.213 44.26 100.919 44.26C101.386 44.26 101.793 44.1733 102.139 44L102.299 45.86Z" fill="#050505"/>
</svg>
