<svg width="41" height="41" viewBox="0 0 41 41" fill="none" xmlns="http://www.w3.org/2000/svg">
<path d="M18.6631 4.26548C19.3573 2.65356 21.6427 2.65356 22.3369 4.26549L25.5731 11.7802C25.8626 12.4526 26.4964 12.913 27.2253 12.9806L35.3723 13.7363C37.1199 13.8983 37.8261 16.072 36.5076 17.2303L30.3607 22.6303C29.8107 23.1134 29.5686 23.8584 29.7296 24.5725L31.5285 32.5543C31.9144 34.2664 30.0654 35.6098 28.5563 34.7137L21.5211 30.5363C20.8917 30.1626 20.1083 30.1626 19.4789 30.5363L12.4437 34.7137C10.9346 35.6098 9.08563 34.2664 9.4715 32.5543L11.2704 24.5725C11.4314 23.8584 11.1893 23.1134 10.6393 22.6303L4.49242 17.2303C3.1739 16.072 3.88015 13.8983 5.62769 13.7363L13.7747 12.9806C14.5036 12.913 15.1374 12.4526 15.4269 11.7802L18.6631 4.26548Z" fill="#464646"/>
<path d="M19.5517 5.98518C19.8565 5.07527 21.1435 5.07526 21.4482 5.98517L24.2499 14.351C24.3854 14.7555 24.7626 15.0295 25.1892 15.0334L34.0113 15.1128C34.9709 15.1215 35.3686 16.3455 34.5974 16.9165L27.5068 22.1663C27.1639 22.4201 27.0199 22.8635 27.148 23.2704L29.7987 31.6853C30.087 32.6006 29.0458 33.357 28.2644 32.8L21.0804 27.6788C20.7331 27.4311 20.2669 27.4311 19.9195 27.6788L12.7355 32.8C11.9542 33.357 10.9129 32.6006 11.2012 31.6853L13.8519 23.2704C13.9801 22.8635 13.836 22.4201 13.4931 22.1663L6.40256 16.9165C5.63135 16.3455 6.02906 15.1215 6.9886 15.1128L15.8107 15.0334C16.2373 15.0295 16.6145 14.7555 16.75 14.351L19.5517 5.98518Z" fill="#FAFF00"/>
</svg>
